<?xml version="1.0" standalone="no"?>
<!DOCTYPE svg PUBLIC "-//W3C//DTD SVG 20010904//EN"
 "http://www.w3.org/TR/2001/REC-SVG-20010904/DTD/svg10.dtd">
<svg version="1.0" xmlns="http://www.w3.org/2000/svg"
 width="1920.000000pt" height="1080.000000pt" viewBox="0 0 1920.000000 1080.000000"
 preserveAspectRatio="xMidYMid meet">

<g transform="translate(0.000000,1080.000000) scale(0.100000,-0.100000)"
fill="#000000" stroke="none">
<path d="M4340 5410 l0 -2910 390 0 390 0 0 986 0 985 287 306 287 306 20 -25
c12 -14 527 -595 1146 -1292 l1124 -1266 510 0 c484 0 508 1 494 18 -8 9 -619
703 -1357 1541 l-1343 1523 30 32 c50 53 2472 2608 2521 2659 l45 47 -479 -1
-480 -1 -1400 -1507 -1400 -1507 -3 1508 -2 1508 -390 0 -390 0 0 -2910z"/>
<path d="M9860 5410 l0 -2910 390 0 390 0 0 1084 0 1084 588 5 c630 4 670 7
935 63 303 64 584 193 822 379 384 299 623 737 674 1235 38 365 -19 751 -150
1013 -244 490 -746 817 -1406 917 -244 36 -365 40 -1314 40 l-929 0 0 -2910z
m1895 2220 c515 -54 845 -247 1002 -588 101 -219 127 -550 63 -820 -78 -330
-305 -601 -615 -735 -255 -111 -558 -146 -1272 -147 l-293 0 0 1157 0 1156
508 -6 c279 -4 552 -11 607 -17z"/>
</g>
</svg>
